<mxfile host="app.diagrams.net" agent="Mozilla/5.0 (X11; Ubuntu; Linux x86_64; rv:130.0) Gecko/20100101 Firefox/130.0" version="26.2.2">
  <diagram id="C5RBs43oDa-KdzZeNtuy" name="Page-1">
    <mxGraphModel grid="1" page="1" gridSize="10" guides="1" tooltips="1" connect="1" arrows="1" fold="1" pageScale="1" pageWidth="827" pageHeight="1169" math="0" shadow="0">
      <root>
        <mxCell id="WIyWlLk6GJQsqaUBKTNV-0" />
        <mxCell id="WIyWlLk6GJQsqaUBKTNV-1" parent="WIyWlLk6GJQsqaUBKTNV-0" />
        <mxCell id="N8MP2D0Ax6cOZZnn1STL-59" value="" style="rounded=0;whiteSpace=wrap;html=1;" vertex="1" parent="WIyWlLk6GJQsqaUBKTNV-1">
          <mxGeometry x="-310" y="260" width="990" height="440" as="geometry" />
        </mxCell>
        <mxCell id="N8MP2D0Ax6cOZZnn1STL-2" value="" style="rounded=1;whiteSpace=wrap;html=1;" vertex="1" parent="WIyWlLk6GJQsqaUBKTNV-1">
          <mxGeometry x="-280" y="280" width="200" height="400" as="geometry" />
        </mxCell>
        <mxCell id="N8MP2D0Ax6cOZZnn1STL-4" value="Memory Read/Write" style="rounded=0;whiteSpace=wrap;html=1;" vertex="1" parent="WIyWlLk6GJQsqaUBKTNV-1">
          <mxGeometry x="-240" y="310" width="120" height="60" as="geometry" />
        </mxCell>
        <mxCell id="N8MP2D0Ax6cOZZnn1STL-5" value="Load bin files" style="rounded=0;whiteSpace=wrap;html=1;" vertex="1" parent="WIyWlLk6GJQsqaUBKTNV-1">
          <mxGeometry x="-240" y="390" width="120" height="60" as="geometry" />
        </mxCell>
        <mxCell id="N8MP2D0Ax6cOZZnn1STL-22" style="edgeStyle=elbowEdgeStyle;rounded=0;orthogonalLoop=1;jettySize=auto;html=1;entryX=0;entryY=0.5;entryDx=0;entryDy=0;elbow=vertical;" edge="1" parent="WIyWlLk6GJQsqaUBKTNV-1" source="N8MP2D0Ax6cOZZnn1STL-6" target="N8MP2D0Ax6cOZZnn1STL-19">
          <mxGeometry relative="1" as="geometry" />
        </mxCell>
        <mxCell id="N8MP2D0Ax6cOZZnn1STL-6" value="DMA Sector" style="rounded=0;whiteSpace=wrap;html=1;" vertex="1" parent="WIyWlLk6GJQsqaUBKTNV-1">
          <mxGeometry x="-240" y="475" width="120" height="60" as="geometry" />
        </mxCell>
        <mxCell id="N8MP2D0Ax6cOZZnn1STL-56" style="edgeStyle=orthogonalEdgeStyle;rounded=0;orthogonalLoop=1;jettySize=auto;html=1;entryX=0;entryY=0.5;entryDx=0;entryDy=0;" edge="1" parent="WIyWlLk6GJQsqaUBKTNV-1" source="N8MP2D0Ax6cOZZnn1STL-7" target="N8MP2D0Ax6cOZZnn1STL-46">
          <mxGeometry relative="1" as="geometry" />
        </mxCell>
        <mxCell id="N8MP2D0Ax6cOZZnn1STL-7" value="Buffer Descriptor Sector" style="rounded=0;whiteSpace=wrap;html=1;" vertex="1" parent="WIyWlLk6GJQsqaUBKTNV-1">
          <mxGeometry x="-240" y="580" width="120" height="60" as="geometry" />
        </mxCell>
        <mxCell id="N8MP2D0Ax6cOZZnn1STL-69" style="edgeStyle=elbowEdgeStyle;rounded=0;orthogonalLoop=1;jettySize=auto;html=1;entryX=0.871;entryY=0;entryDx=0;entryDy=0;entryPerimeter=0;" edge="1" parent="WIyWlLk6GJQsqaUBKTNV-1" source="N8MP2D0Ax6cOZZnn1STL-17" target="N8MP2D0Ax6cOZZnn1STL-73">
          <mxGeometry relative="1" as="geometry">
            <mxPoint x="570" y="820" as="targetPoint" />
          </mxGeometry>
        </mxCell>
        <mxCell id="N8MP2D0Ax6cOZZnn1STL-17" value="" style="rounded=0;whiteSpace=wrap;html=1;" vertex="1" parent="WIyWlLk6GJQsqaUBKTNV-1">
          <mxGeometry x="480" y="370" width="180" height="280" as="geometry" />
        </mxCell>
        <mxCell id="N8MP2D0Ax6cOZZnn1STL-19" value="" style="rounded=0;whiteSpace=wrap;html=1;" vertex="1" parent="WIyWlLk6GJQsqaUBKTNV-1">
          <mxGeometry x="-20" y="440" width="210" height="90" as="geometry" />
        </mxCell>
        <mxCell id="N8MP2D0Ax6cOZZnn1STL-20" value="DMA Write" style="rounded=1;whiteSpace=wrap;html=1;gradientColor=none;strokeColor=light-dark(#1a5fb4, #ededed);" vertex="1" parent="WIyWlLk6GJQsqaUBKTNV-1">
          <mxGeometry x="-10" y="450" width="190" height="30" as="geometry" />
        </mxCell>
        <mxCell id="N8MP2D0Ax6cOZZnn1STL-37" style="edgeStyle=orthogonalEdgeStyle;rounded=0;orthogonalLoop=1;jettySize=auto;html=1;" edge="1" parent="WIyWlLk6GJQsqaUBKTNV-1" source="N8MP2D0Ax6cOZZnn1STL-21">
          <mxGeometry relative="1" as="geometry">
            <mxPoint x="230" y="505" as="targetPoint" />
          </mxGeometry>
        </mxCell>
        <mxCell id="N8MP2D0Ax6cOZZnn1STL-21" value="Dma Read" style="rounded=1;whiteSpace=wrap;html=1;strokeColor=light-dark(#1a5fb4, #403300);" vertex="1" parent="WIyWlLk6GJQsqaUBKTNV-1">
          <mxGeometry x="-10" y="490" width="190" height="30" as="geometry" />
        </mxCell>
        <mxCell id="N8MP2D0Ax6cOZZnn1STL-24" value="DMA Start" style="rounded=1;whiteSpace=wrap;html=1;gradientColor=none;strokeColor=light-dark(#1a5fb4, #ededed);" vertex="1" parent="WIyWlLk6GJQsqaUBKTNV-1">
          <mxGeometry x="490" y="380" width="160" height="30" as="geometry" />
        </mxCell>
        <mxCell id="N8MP2D0Ax6cOZZnn1STL-25" value="S2MM_CURRENTREG" style="rounded=1;whiteSpace=wrap;html=1;gradientColor=none;strokeColor=light-dark(#1a5fb4, #ededed);" vertex="1" parent="WIyWlLk6GJQsqaUBKTNV-1">
          <mxGeometry x="490" y="530" width="160" height="30" as="geometry" />
        </mxCell>
        <mxCell id="N8MP2D0Ax6cOZZnn1STL-65" style="edgeStyle=elbowEdgeStyle;rounded=0;orthogonalLoop=1;jettySize=auto;html=1;entryX=1;entryY=0;entryDx=0;entryDy=0;elbow=vertical;strokeColor=light-dark(#bb40bf, #ededed);dashed=1;" edge="1" parent="WIyWlLk6GJQsqaUBKTNV-1" source="N8MP2D0Ax6cOZZnn1STL-26" target="N8MP2D0Ax6cOZZnn1STL-62">
          <mxGeometry relative="1" as="geometry" />
        </mxCell>
        <mxCell id="N8MP2D0Ax6cOZZnn1STL-26" value="S2MM_TAILREG" style="rounded=1;whiteSpace=wrap;html=1;gradientColor=none;strokeColor=light-dark(#1a5fb4, #ededed);" vertex="1" parent="WIyWlLk6GJQsqaUBKTNV-1">
          <mxGeometry x="490" y="570" width="160" height="30" as="geometry" />
        </mxCell>
        <mxCell id="N8MP2D0Ax6cOZZnn1STL-66" style="edgeStyle=elbowEdgeStyle;rounded=0;orthogonalLoop=1;jettySize=auto;html=1;elbow=vertical;dashed=1;" edge="1" parent="WIyWlLk6GJQsqaUBKTNV-1" source="N8MP2D0Ax6cOZZnn1STL-27" target="N8MP2D0Ax6cOZZnn1STL-62">
          <mxGeometry relative="1" as="geometry" />
        </mxCell>
        <mxCell id="N8MP2D0Ax6cOZZnn1STL-27" value="ERROR CHECK" style="rounded=1;whiteSpace=wrap;html=1;gradientColor=none;strokeColor=light-dark(#1a5fb4, #ededed);" vertex="1" parent="WIyWlLk6GJQsqaUBKTNV-1">
          <mxGeometry x="490" y="610" width="160" height="30" as="geometry" />
        </mxCell>
        <mxCell id="N8MP2D0Ax6cOZZnn1STL-31" value="MM2S_TAILREG" style="rounded=1;whiteSpace=wrap;html=1;gradientColor=none;strokeColor=light-dark(#1a5fb4, #ededed);" vertex="1" parent="WIyWlLk6GJQsqaUBKTNV-1">
          <mxGeometry x="490" y="490" width="160" height="30" as="geometry" />
        </mxCell>
        <mxCell id="N8MP2D0Ax6cOZZnn1STL-32" value="MM2S_CURRENTREG" style="rounded=1;whiteSpace=wrap;html=1;gradientColor=none;strokeColor=light-dark(#1a5fb4, #ededed);" vertex="1" parent="WIyWlLk6GJQsqaUBKTNV-1">
          <mxGeometry x="490" y="455" width="160" height="30" as="geometry" />
        </mxCell>
        <mxCell id="N8MP2D0Ax6cOZZnn1STL-33" value="DMA Stop" style="rounded=1;whiteSpace=wrap;html=1;gradientColor=none;strokeColor=light-dark(#1a5fb4, #ededed);" vertex="1" parent="WIyWlLk6GJQsqaUBKTNV-1">
          <mxGeometry x="490" y="420" width="160" height="30" as="geometry" />
        </mxCell>
        <mxCell id="N8MP2D0Ax6cOZZnn1STL-34" style="edgeStyle=orthogonalEdgeStyle;rounded=0;orthogonalLoop=1;jettySize=auto;html=1;exitX=0.5;exitY=1;exitDx=0;exitDy=0;" edge="1" parent="WIyWlLk6GJQsqaUBKTNV-1" source="N8MP2D0Ax6cOZZnn1STL-17" target="N8MP2D0Ax6cOZZnn1STL-17">
          <mxGeometry relative="1" as="geometry" />
        </mxCell>
        <mxCell id="N8MP2D0Ax6cOZZnn1STL-35" style="edgeStyle=orthogonalEdgeStyle;rounded=0;orthogonalLoop=1;jettySize=auto;html=1;entryX=0;entryY=0.339;entryDx=0;entryDy=0;entryPerimeter=0;" edge="1" parent="WIyWlLk6GJQsqaUBKTNV-1" source="N8MP2D0Ax6cOZZnn1STL-20" target="N8MP2D0Ax6cOZZnn1STL-17">
          <mxGeometry relative="1" as="geometry" />
        </mxCell>
        <mxCell id="N8MP2D0Ax6cOZZnn1STL-36" value="Shows all dma registers" style="rounded=0;whiteSpace=wrap;html=1;" vertex="1" parent="WIyWlLk6GJQsqaUBKTNV-1">
          <mxGeometry x="240" y="490" width="210" height="35" as="geometry" />
        </mxCell>
        <mxCell id="N8MP2D0Ax6cOZZnn1STL-46" value="" style="rounded=0;whiteSpace=wrap;html=1;" vertex="1" parent="WIyWlLk6GJQsqaUBKTNV-1">
          <mxGeometry x="-10" y="550" width="180" height="120" as="geometry" />
        </mxCell>
        <mxCell id="N8MP2D0Ax6cOZZnn1STL-47" value="BD Creation" style="rounded=1;whiteSpace=wrap;html=1;gradientColor=none;strokeColor=light-dark(#1a5fb4, #ededed);" vertex="1" parent="WIyWlLk6GJQsqaUBKTNV-1">
          <mxGeometry y="560" width="160" height="30" as="geometry" />
        </mxCell>
        <mxCell id="N8MP2D0Ax6cOZZnn1STL-67" style="edgeStyle=elbowEdgeStyle;rounded=0;orthogonalLoop=1;jettySize=auto;html=1;entryX=0.346;entryY=0.05;entryDx=0;entryDy=0;entryPerimeter=0;" edge="1" parent="WIyWlLk6GJQsqaUBKTNV-1" source="N8MP2D0Ax6cOZZnn1STL-52" target="N8MP2D0Ax6cOZZnn1STL-73">
          <mxGeometry relative="1" as="geometry">
            <mxPoint x="80" y="820" as="targetPoint" />
          </mxGeometry>
        </mxCell>
        <mxCell id="N8MP2D0Ax6cOZZnn1STL-52" value="BD Read" style="rounded=1;whiteSpace=wrap;html=1;gradientColor=none;strokeColor=light-dark(#1a5fb4, #ededed);" vertex="1" parent="WIyWlLk6GJQsqaUBKTNV-1">
          <mxGeometry y="635" width="160" height="30" as="geometry" />
        </mxCell>
        <mxCell id="N8MP2D0Ax6cOZZnn1STL-53" value="BD Writing" style="rounded=1;whiteSpace=wrap;html=1;gradientColor=none;strokeColor=light-dark(#1a5fb4, #ededed);" vertex="1" parent="WIyWlLk6GJQsqaUBKTNV-1">
          <mxGeometry y="600" width="160" height="30" as="geometry" />
        </mxCell>
        <mxCell id="N8MP2D0Ax6cOZZnn1STL-54" style="edgeStyle=orthogonalEdgeStyle;rounded=0;orthogonalLoop=1;jettySize=auto;html=1;exitX=0.5;exitY=1;exitDx=0;exitDy=0;" edge="1" parent="WIyWlLk6GJQsqaUBKTNV-1" source="N8MP2D0Ax6cOZZnn1STL-46" target="N8MP2D0Ax6cOZZnn1STL-46">
          <mxGeometry relative="1" as="geometry" />
        </mxCell>
        <mxCell id="N8MP2D0Ax6cOZZnn1STL-60" value="&lt;h2&gt;&lt;font style=&quot;font-size: 23px;&quot;&gt;Application&lt;/font&gt;&lt;/h2&gt;" style="text;html=1;align=center;verticalAlign=middle;resizable=0;points=[];autosize=1;strokeColor=none;fillColor=none;" vertex="1" parent="WIyWlLk6GJQsqaUBKTNV-1">
          <mxGeometry x="105" y="205" width="150" height="70" as="geometry" />
        </mxCell>
        <mxCell id="N8MP2D0Ax6cOZZnn1STL-71" style="edgeStyle=elbowEdgeStyle;rounded=0;orthogonalLoop=1;jettySize=auto;html=1;entryX=0.601;entryY=0;entryDx=0;entryDy=0;entryPerimeter=0;" edge="1" parent="WIyWlLk6GJQsqaUBKTNV-1" source="N8MP2D0Ax6cOZZnn1STL-62" target="N8MP2D0Ax6cOZZnn1STL-73">
          <mxGeometry relative="1" as="geometry">
            <mxPoint x="320" y="820" as="targetPoint" />
          </mxGeometry>
        </mxCell>
        <mxCell id="N8MP2D0Ax6cOZZnn1STL-62" value="POLL" style="ellipse;whiteSpace=wrap;html=1;aspect=fixed;" vertex="1" parent="WIyWlLk6GJQsqaUBKTNV-1">
          <mxGeometry x="280" y="580" width="80" height="80" as="geometry" />
        </mxCell>
        <mxCell id="N8MP2D0Ax6cOZZnn1STL-64" style="rounded=0;orthogonalLoop=1;jettySize=auto;html=1;entryX=0.763;entryY=0.138;entryDx=0;entryDy=0;entryPerimeter=0;dashed=1;strokeColor=#FF0AD6;" edge="1" parent="WIyWlLk6GJQsqaUBKTNV-1" source="N8MP2D0Ax6cOZZnn1STL-31" target="N8MP2D0Ax6cOZZnn1STL-62">
          <mxGeometry relative="1" as="geometry" />
        </mxCell>
        <mxCell id="N8MP2D0Ax6cOZZnn1STL-68" value="IOCTL" style="text;html=1;align=center;verticalAlign=middle;resizable=0;points=[];autosize=1;strokeColor=none;fillColor=none;" vertex="1" parent="WIyWlLk6GJQsqaUBKTNV-1">
          <mxGeometry x="120" y="718" width="60" height="30" as="geometry" />
        </mxCell>
        <mxCell id="N8MP2D0Ax6cOZZnn1STL-70" value="file ops" style="text;html=1;align=center;verticalAlign=middle;resizable=0;points=[];autosize=1;strokeColor=none;fillColor=none;" vertex="1" parent="WIyWlLk6GJQsqaUBKTNV-1">
          <mxGeometry x="600" y="708" width="60" height="30" as="geometry" />
        </mxCell>
        <mxCell id="N8MP2D0Ax6cOZZnn1STL-72" value="Poll" style="text;html=1;align=center;verticalAlign=middle;resizable=0;points=[];autosize=1;strokeColor=none;fillColor=none;" vertex="1" parent="WIyWlLk6GJQsqaUBKTNV-1">
          <mxGeometry x="320" y="718" width="40" height="30" as="geometry" />
        </mxCell>
        <mxCell id="N8MP2D0Ax6cOZZnn1STL-73" value="&lt;h1&gt;&lt;font style=&quot;font-size: 23px;&quot;&gt;Driver&lt;/font&gt;&lt;/h1&gt;" style="rounded=0;whiteSpace=wrap;html=1;" vertex="1" parent="WIyWlLk6GJQsqaUBKTNV-1">
          <mxGeometry x="-240" y="830" width="930" height="60" as="geometry" />
        </mxCell>
      </root>
    </mxGraphModel>
  </diagram>
</mxfile>
